<svg xmlns="http://www.w3.org/2000/svg" viewBox="0 0 200 200" width="200" height="200">
  <defs>
    <style>
      .logo-blue { fill: #2563eb; }
    </style>
  </defs>
  
  <!-- Main flower-like logo shape -->
  <g transform="translate(100,100)">
    <!-- Outer petals -->
    <path class="logo-blue" d="M-60,-20 Q-80,-40 -60,-60 Q-40,-80 -20,-60 Q0,-40 -20,-20 Q-40,0 -60,-20 Z" opacity="0.9"/>
    <path class="logo-blue" d="M20,-60 Q40,-80 60,-60 Q80,-40 60,-20 Q40,0 20,-20 Q0,-40 20,-60 Z" opacity="0.9"/>
    <path class="logo-blue" d="M60,20 Q80,40 60,60 Q40,80 20,60 Q0,40 20,20 Q40,0 60,20 Z" opacity="0.9"/>
    <path class="logo-blue" d="M-20,60 Q-40,80 -60,60 Q-80,40 -60,20 Q-40,0 -20,20 Q0,40 -20,60 Z" opacity="0.9"/>
    
    <!-- Inner connecting elements -->
    <path class="logo-blue" d="M-40,-40 Q-20,-50 0,-40 Q20,-30 40,-40 Q50,-20 40,0 Q30,20 40,40 Q20,50 0,40 Q-20,30 -40,40 Q-50,20 -40,0 Q-30,-20 -40,-40 Z" opacity="0.7"/>
    
    <!-- Center hexagon -->
    <polygon class="logo-blue" points="-8,-14 8,-14 16,0 8,14 -8,14 -16,0" opacity="1"/>
  </g>
</svg>